<svg xmlns="http://www.w3.org/2000/svg" viewBox="-2 -2 29 29" xmlns:c2pa="http://c2pa.org/manifest"><metadata><c2pa:manifest>AAAWgmp1bWIAAAAeanVtZGMycGEAEQAQgAAAqgA4m3EDYzJwYQAAABZcanVtYgAAAEdqdW1kYzJtYQARABCAAACqADibcQN1cm46YzJwYTplZGY1ZmExNi04ZTZlLTRjNDYtOTJhZC1mMjkyNWM3Y2E3M2YAAAADl2p1bWIAAAApanVtZGMyYXMAEQAQgAAAqgA4m3EDYzJwYS5hc3NlcnRpb25zAAAAALxqdW1iAAAARGp1bWRjYm9yABEAEIAAAKoAOJtxE2MycGEuaW5ncmVkaWVudC52MwAAAAAYYzJzaK/mautEl6T9nWqekqQsUEoAAABwY2JvcqNpZGM6Zm9ybWF0bWltYWdlL3N2Zyt4bWxqaW5zdGFuY2VJRHgseG1wOmlpZDo3NTg3Zjk1Ny1jNzI4LTRjMWEtOTdkMy0xYzg2MjIyMmI2ZGRscmVsYXRpb25zaGlwaHBhcmVudE9mAAAB4mp1bWIAAABBanVtZGNib3IAEQAQgAAAqgA4m3ETYzJwYS5hY3Rpb25zLnYyAAAAABhjMnNoPFJMjx7F5oL0wkE/KunKeQAAAZljYm9yomdhY3Rpb25zgqJmYWN0aW9ua2MycGEub3BlbmVkanBhcmFtZXRlcnOha2luZ3JlZGllbnRzgaJjdXJseC1zZWxmI2p1bWJmPWMycGEuYXNzZXJ0aW9ucy9jMnBhLmluZ3JlZGllbnQudjNkaGFzaFggtJZwlJ7EFlE5TNokXYnHYMRmbJtb+wvSSuvXB6E47MKkZmFjdGlvbngdY29tLmFudGhyb3BpYy5jbGF1ZGUucHJvdmlkZWRqcGFyYW1ldGVyc6F4H2NvbS5hbnRocm9waWMub3JpZ2luLWNvbmZpZGVuY2VndW5rbm93bmtkZXNjcmlwdGlvbnhmQ2xhdWRlIHByb3ZpZGVkIHRoaXMgZmlsZSBhdCB0aGUgcmVxdWVzdCBvZiBhIHVzZXIgYW5kIG1heSBoYXZlIGNyZWF0ZWQgb3IgbW9kaWZpZWQgdGhlIGZpbGUgY29udGVudHMubXNvZnR3YXJlQWdlbnShZG5hbWVmQ2xhdWRlcmFsbEFjdGlvbnNJbmNsdWRlZPUAAADIanVtYgAAAEBqdW1kY2JvcgARABCAAACqADibcRNjMnBhLmhhc2guZGF0YQAAAAAYYzJzaHHmwTv97NhbcebtpJUx1hoAAACAY2JvcqVjYWxnZnNoYTI1NmNwYWRNAAAAAAAAAAAAAAAAAGRoYXNoWCCmc24KR48ULmG5AJWYMDkMp2sS8G0EpnYuNQAoAgU6xWRuYW1lbmp1bWJmIG1hbmlmZXN0amV4Y2x1c2lvbnOBomVzdGFydBh9Zmxlbmd0aBkeBAAAAj5qdW1iAAAAJ2p1bWRjMmNsABEAEIAAAKoAOJtxA2MycGEuY2xhaW0udjIAAAACD2Nib3KlY2FsZ2ZzaGEyNTZpc2lnbmF0dXJleE1zZWxmI2p1bWJmPS9jMnBhL3VybjpjMnBhOmVkZjVmYTE2LThlNmUtNGM0Ni05MmFkLWYyOTI1YzdjYTczZi9jMnBhLnNpZ25hdHVyZWppbnN0YW5jZUlEeCx4bXA6aWlkOmZjZjU1YzU2LTU1MjEtNGZkYS04MTNhLTM4ZTkwNDllMWE5ZXJjcmVhdGVkX2Fzc2VydGlvbnODomN1cmx4LXNlbGYjanVtYmY9YzJwYS5hc3NlcnRpb25zL2MycGEuaW5ncmVkaWVudC52M2RoYXNoWCC0lnCUnsQWUTlM2iRdicdgxGZsm1v7C9JK69cHoTjswqJjdXJseCpzZWxmI2p1bWJmPWMycGEuYXNzZXJ0aW9ucy9jMnBhLmFjdGlvbnMudjJkaGFzaFgg8yK6UMzYtniszwzUwKCf3V36xEvSuw5AbIxOWw2cDt+iY3VybHgpc2VsZiNqdW1iZj1jMnBhLmFzc2VydGlvbnMvYzJwYS5oYXNoLmRhdGFkaGFzaFggBeOMQnIfJLvRbp53i8JfF9cy2CO7t8VwD2vnoZ57M8N0Y2xhaW1fZ2VuZXJhdG9yX2luZm+jZG5hbWVvQW50aHJvcGljIEZpbGVzZ3ZlcnNpb25lMS4wLjBrc3BlY1ZlcnNpb25lMi40LjAAABA4anVtYgAAAChqdW1kYzJjcwARABCAAACqADibcQNjMnBhLnNpZ25hdHVyZQAAABAIY2JvctKEWQISogEmGCFZAgowggIGMIIBjaADAgECAhRA5aAK7sI50L64g/oGQgU9Z1UTADAKBggqhkjOPQQDAzBJMRcwFQYDVQQKEw5BbnRocm9waWMsIFBCQzEuMCwGA1UEAxMlQW50aHJvcGljIENvbnRlbnQgQ3JlZGVudGlhbHMgUm9vdCBDQTAeFw0yNjA4MDcxODQzNTZaFw0yODA4MDYxOTQzNTZaMEQxFzAVBgNVBAoTDkFudGhyb3BpYywgUEJDMSkwJwYDVQQDEyBBbnRocm9waWMgQ2xhdWRlIENvbnRlbnQgU2lnbmluZzBZMBMGByqGSM49AgEGCCqGSM49AwEHA0IABJh6CmvLUBgFFNU0vUKlOVtE6djd17L5SuwX0LemFisBM3dkd/3cyjxFA3Qo5S46fX0/ihY0VZ7mfb9KF703t5OjWDBWMA4GA1UdDwEB/wQEAwIHgDAVBgNVHSUEDjAMBgorBgEEAYPoXgIBMAwGA1UdEwEB/wQCMAAwHwYDVR0jBBgwFoAUzlHiBIFOZFsj+OPEz5o+nMHXXMIwCgYIKoZIzj0EAwMDZwAwZAIwMXMdFJ4BetLLVY7ORuE9noqbbAZOZn/aArXyTwFAZfKrPzxF2vPoJNf1+UCdg1XGAjBwX1zd9WGqYkqmL5SFqw1QySjr1zJfpJM9+1rdDwSPLMOPOjKuiXjoU/pUUeG9RwmhY3BhZFkNngAAAAAAAAAAAAAAAAAAAAAAAAAAAAAAAAAAAAAAAAAAAAAAAAAAAAAAAAAAAAAAAAAAAAAAAAAAAAAAAAAAAAAAAAAAAAAAAAAAAAAAAAAAAAAAAAAAAAAAAAAAAAAAAAAAAAAAAAAAAAAAAAAAAAAAAAAAAAAAAAAAAAAAAAAAAAAAAAAAAAAAAAAAAAAAAAAAAAAAAAAAAAAAAAAAAAAAAAAAAAAAAAAAAAAAAAAAAAAAAAAAAAAAAAAAAAAAAAAAAAAAAAAAAAAAAAAAAAAAAAAAAAAAAAAAAAAAAAAAAAAAAAAAAAAAAAAAAAAAAAAAAAAAAAAAAAAAAAAAAAAAAAAAAAAAAAAAAAAAAAAAAAAAAAAAAAAAAAAAAAAAAAAAAAAAAAAAAAAAAAAAAAAAAAAAAAAAAAAAAAAAAAAAAAAAAAAAAAAAAAAAAAAAAAAAAAAAAAAAAAAAAAAAAAAAAAAAAAAAAAAAAAAAAAAAAAAAAAAAAAAAAAAAAAAAAAAAAAAAAAAAAAAAAAAAAAAAAAAAAAAAAAAAAAAAAAAAAAAAAAAAAAAAAAAAAAAAAAAAAAAAAAAAAAAAAAAAAAAAAAAAAAAAAAAAAAAAAAAAAAAAAAAAAAAAAAAAAAAAAAAAAAAAAAAAAAAAAAAAAAAAAAAAAAAAAAAAAAAAAAAAAAAAAAAAAAAAAAAAAAAAAAAAAAAAAAAAAAAAAAAAAAAAAAAAAAAAAAAAAAAAAAAAAAAAAAAAAAAAAAAAAAAAAAAAAAAAAAAAAAAAAAAAAAAAAAAAAAAAAAAAAAAAAAAAAAAAAAAAAAAAAAAAAAAAAAAAAAAAAAAAAAAAAAAAAAAAAAAAAAAAAAAAAAAAAAAAAAAAAAAAAAAAAAAAAAAAAAAAAAAAAAAAAAAAAAAAAAAAAAAAAAAAAAAAAAAAAAAAAAAAAAAAAAAAAAAAAAAAAAAAAAAAAAAAAAAAAAAAAAAAAAAAAAAAAAAAAAAAAAAAAAAAAAAAAAAAAAAAAAAAAAAAAAAAAAAAAAAAAAAAAAAAAAAAAAAAAAAAAAAAAAAAAAAAAAAAAAAAAAAAAAAAAAAAAAAAAAAAAAAAAAAAAAAAAAAAAAAAAAAAAAAAAAAAAAAAAAAAAAAAAAAAAAAAAAAAAAAAAAAAAAAAAAAAAAAAAAAAAAAAAAAAAAAAAAAAAAAAAAAAAAAAAAAAAAAAAAAAAAAAAAAAAAAAAAAAAAAAAAAAAAAAAAAAAAAAAAAAAAAAAAAAAAAAAAAAAAAAAAAAAAAAAAAAAAAAAAAAAAAAAAAAAAAAAAAAAAAAAAAAAAAAAAAAAAAAAAAAAAAAAAAAAAAAAAAAAAAAAAAAAAAAAAAAAAAAAAAAAAAAAAAAAAAAAAAAAAAAAAAAAAAAAAAAAAAAAAAAAAAAAAAAAAAAAAAAAAAAAAAAAAAAAAAAAAAAAAAAAAAAAAAAAAAAAAAAAAAAAAAAAAAAAAAAAAAAAAAAAAAAAAAAAAAAAAAAAAAAAAAAAAAAAAAAAAAAAAAAAAAAAAAAAAAAAAAAAAAAAAAAAAAAAAAAAAAAAAAAAAAAAAAAAAAAAAAAAAAAAAAAAAAAAAAAAAAAAAAAAAAAAAAAAAAAAAAAAAAAAAAAAAAAAAAAAAAAAAAAAAAAAAAAAAAAAAAAAAAAAAAAAAAAAAAAAAAAAAAAAAAAAAAAAAAAAAAAAAAAAAAAAAAAAAAAAAAAAAAAAAAAAAAAAAAAAAAAAAAAAAAAAAAAAAAAAAAAAAAAAAAAAAAAAAAAAAAAAAAAAAAAAAAAAAAAAAAAAAAAAAAAAAAAAAAAAAAAAAAAAAAAAAAAAAAAAAAAAAAAAAAAAAAAAAAAAAAAAAAAAAAAAAAAAAAAAAAAAAAAAAAAAAAAAAAAAAAAAAAAAAAAAAAAAAAAAAAAAAAAAAAAAAAAAAAAAAAAAAAAAAAAAAAAAAAAAAAAAAAAAAAAAAAAAAAAAAAAAAAAAAAAAAAAAAAAAAAAAAAAAAAAAAAAAAAAAAAAAAAAAAAAAAAAAAAAAAAAAAAAAAAAAAAAAAAAAAAAAAAAAAAAAAAAAAAAAAAAAAAAAAAAAAAAAAAAAAAAAAAAAAAAAAAAAAAAAAAAAAAAAAAAAAAAAAAAAAAAAAAAAAAAAAAAAAAAAAAAAAAAAAAAAAAAAAAAAAAAAAAAAAAAAAAAAAAAAAAAAAAAAAAAAAAAAAAAAAAAAAAAAAAAAAAAAAAAAAAAAAAAAAAAAAAAAAAAAAAAAAAAAAAAAAAAAAAAAAAAAAAAAAAAAAAAAAAAAAAAAAAAAAAAAAAAAAAAAAAAAAAAAAAAAAAAAAAAAAAAAAAAAAAAAAAAAAAAAAAAAAAAAAAAAAAAAAAAAAAAAAAAAAAAAAAAAAAAAAAAAAAAAAAAAAAAAAAAAAAAAAAAAAAAAAAAAAAAAAAAAAAAAAAAAAAAAAAAAAAAAAAAAAAAAAAAAAAAAAAAAAAAAAAAAAAAAAAAAAAAAAAAAAAAAAAAAAAAAAAAAAAAAAAAAAAAAAAAAAAAAAAAAAAAAAAAAAAAAAAAAAAAAAAAAAAAAAAAAAAAAAAAAAAAAAAAAAAAAAAAAAAAAAAAAAAAAAAAAAAAAAAAAAAAAAAAAAAAAAAAAAAAAAAAAAAAAAAAAAAAAAAAAAAAAAAAAAAAAAAAAAAAAAAAAAAAAAAAAAAAAAAAAAAAAAAAAAAAAAAAAAAAAAAAAAAAAAAAAAAAAAAAAAAAAAAAAAAAAAAAAAAAAAAAAAAAAAAAAAAAAAAAAAAAAAAAAAAAAAAAAAAAAAAAAAAAAAAAAAAAAAAAAAAAAAAAAAAAAAAAAAAAAAAAAAAAAAAAAAAAAAAAAAAAAAAAAAAAAAAAAAAAAAAAAAAAAAAAAAAAAAAAAAAAAAAAAAAAAAAAAAAAAAAAAAAAAAAAAAAAAAAAAAAAAAAAAAAAAAAAAAAAAAAAAAAAAAAAAAAAAAAAAAAAAAAAAAAAAAAAAAAAAAAAAAAAAAAAAAAAAAAAAAAAAAAAAAAAAAAAAAAAAAAAAAAAAAAAAAAAAAAAAAAAAAAAAAAAAAAAAAAAAAAAAAAAAAAAAAAAAAAAAAAAAAAAAAAAAAAAAAAAAAAAAAAAAAAAAAAAAAAAAAAAAAAAAAAAAAAAAAAAAAAAAAAAAAAAAAAAAAAAAAAAAAAAAAAAAAAAAAAAAAAAAAAAAAAAAAAAAAAAAAAAAAAAAAAAAAAAAAAAAAAAAAAAAAAAAAAAAAAAAAAAAAAAAAAAAAAAAAAAAAAAAAAAAAAAAAAAAAAAAAAAAAAAAAAAAAAAAAAAAAAAAAAAAAAAAAAAAAAAAAAAAAAAAAAAAAAAAAAAAAAAAAAAAAAAAAAAAAAAAAAAAAAAAAAAAAAAAAAAAAAAAAAAAAAAAAAAAAAAAAAAAAAAAAAAAAAAAAAAAAAAAAAAAAAAAAAAAAAAAAAAAAAAAAAAAAAAAAAAAAAAAAAAAAAAAAAAAAAAAAAAAAAAAAAAAAAAAAAAAAAAAAAAAAAAAAAAAAAAAAAAAAAAAAAAAAAAAAAAAAAAAAAAAAAAAAAAAAAAAAAAAAAAAAAAAAAAAAAAAAAAAAAAAAAAAAAAAAAAAAAAAAAAAAAAAAAAAAAAAAAAAAAAAAAAAAAAAAAAAAAAAAAAAAAAAAAAAAAAAAAAAAAAAAAAAAAAAAAAAAAAAAAAAAAAAAAAAAAAAAAAAAAAAAAAAAAAAAAAAAAAAAAAAAAAAAAAAAAAAAAAAAAAAAAAAAAAAAAAAAAAAAAAAAAAAAAAAAAAAAAAAAAAAAAAAAAAAAAAAAAAAAAAAAAAAAAAAAAAAAAAAAAAAAAAAAAAAAAAAAAAAAAAAAAAAAAAAAAAAAAAAAAAAAAAAAAAAAAAAAAAAAAAAAAAAAAAAAAAAAAAAAAAAAAAAAAAAAAAAAAAAAAAAAAAAAAAAAAAAAAAAAAAAAAAAAAAAAAAAAAAAAAAAAAAAAAAAAAAAAAAAAAAAAAAAAAAAAAAAAAAAAAAAAAAAAAAAAAAAAAAAAAAAAAAAAAAAAAAAAAAAAAAAAAAAAAAAAAAAAAAAAAAAAAAAAAAAAAAAAAAAAAAAAAAAAAAAAAAAAAAAAAAAAAAAAAAAAAAAAAAAAAAAAAAAAAAAAAAAAAAAAAAAAAAAAAAAAAAAAAAAAAAAAAAAAAAAAAAAAAAAAAAAAAAAAAAAAAAAAAAAAAAAAAAAAAAAAAAAAAAAAAAAAAAAAAAAAAAAAAAAAAAAAAAAAAAAAAAAAAAAAAAAAAAAAAAAAAAAAAAAAAAAAAAAAAAAAAAAAAAAAAAAAAAAAAAAAAAAAAAAAAAAAAAAAAAAAAAAAAAAAAAAAAAAAAAAAAAAAAAAAAAAAAAAAAAAAAAAAAAAAAAAAAAAAAAAAAAAAAAAAAAAAAAAAAAAAAAAAAAAAAAAAAAAAAAAAAAAAAAAAAAAAAAAAAAAAAAAAAAAAAAAAAAAAAAAAAAAAAAAAAAAAAAAAAAAAAAAAAAAAAAAAAAAAAAAAAAAAAAAAAAAAAAAAAAAAAAAAAAAAAAAAAAAAAAAAAAAAAAAAAAAAAAAAAAAAAAAAAAAAAAAAAAAAAAAAAAAAAAAAAAAPZYQLUpb4bhGK0wKT9Jd4NNvUHiuXa825/Etd0yaQYSJ2IiwZ90QnlK00o87YVhcNSAtdaZdc8mckWdQaqsWUVwrF8=</c2pa:manifest></metadata><rect x="-2" y="-2" width="29" height="29" fill="#fff"/><g fill="#111"><rect x="0" y="0" width="7" height="7"/><rect x="1" y="1" width="5" height="5" fill="#fff"/><rect x="2" y="2" width="3" height="3"/><rect x="18" y="0" width="7" height="7"/><rect x="19" y="1" width="5" height="5" fill="#fff"/><rect x="20" y="2" width="3" height="3"/><rect x="0" y="18" width="7" height="7"/><rect x="1" y="19" width="5" height="5" fill="#fff"/><rect x="2" y="20" width="3" height="3"/><rect x="8" y="0" width="1" height="1"/><rect x="9" y="0" width="1" height="1"/><rect x="11" y="0" width="1" height="1"/><rect x="13" y="0" width="1" height="1"/><rect x="14" y="0" width="1" height="1"/><rect x="16" y="0" width="1" height="1"/><rect x="8" y="1" width="1" height="1"/><rect x="9" y="1" width="1" height="1"/><rect x="10" y="1" width="1" height="1"/><rect x="11" y="1" width="1" height="1"/><rect x="13" y="1" width="1" height="1"/><rect x="14" y="1" width="1" height="1"/><rect x="9" y="2" width="1" height="1"/><rect x="11" y="2" width="1" height="1"/><rect x="13" y="2" width="1" height="1"/><rect x="14" y="2" width="1" height="1"/><rect x="15" y="2" width="1" height="1"/><rect x="16" y="2" width="1" height="1"/><rect x="9" y="3" width="1" height="1"/><rect x="12" y="3" width="1" height="1"/><rect x="14" y="3" width="1" height="1"/><rect x="15" y="3" width="1" height="1"/><rect x="16" y="3" width="1" height="1"/><rect x="9" y="4" width="1" height="1"/><rect x="10" y="4" width="1" height="1"/><rect x="12" y="4" width="1" height="1"/><rect x="13" y="4" width="1" height="1"/><rect x="16" y="4" width="1" height="1"/><rect x="12" y="5" width="1" height="1"/><rect x="14" y="5" width="1" height="1"/><rect x="15" y="5" width="1" height="1"/><rect x="8" y="6" width="1" height="1"/><rect x="9" y="6" width="1" height="1"/><rect x="10" y="6" width="1" height="1"/><rect x="15" y="6" width="1" height="1"/><rect x="10" y="7" width="1" height="1"/><rect x="13" y="7" width="1" height="1"/><rect x="15" y="7" width="1" height="1"/><rect x="3" y="8" width="1" height="1"/><rect x="4" y="8" width="1" height="1"/><rect x="6" y="8" width="1" height="1"/><rect x="7" y="8" width="1" height="1"/><rect x="8" y="8" width="1" height="1"/><rect x="9" y="8" width="1" height="1"/><rect x="10" y="8" width="1" height="1"/><rect x="12" y="8" width="1" height="1"/><rect x="13" y="8" width="1" height="1"/><rect x="14" y="8" width="1" height="1"/><rect x="16" y="8" width="1" height="1"/><rect x="17" y="8" width="1" height="1"/><rect x="22" y="8" width="1" height="1"/><rect x="23" y="8" width="1" height="1"/><rect x="24" y="8" width="1" height="1"/><rect x="2" y="9" width="1" height="1"/><rect x="3" y="9" width="1" height="1"/><rect x="4" y="9" width="1" height="1"/><rect x="5" y="9" width="1" height="1"/><rect x="6" y="9" width="1" height="1"/><rect x="8" y="9" width="1" height="1"/><rect x="9" y="9" width="1" height="1"/><rect x="10" y="9" width="1" height="1"/><rect x="11" y="9" width="1" height="1"/><rect x="18" y="9" width="1" height="1"/><rect x="23" y="9" width="1" height="1"/><rect x="24" y="9" width="1" height="1"/><rect x="0" y="10" width="1" height="1"/><rect x="2" y="10" width="1" height="1"/><rect x="3" y="10" width="1" height="1"/><rect x="4" y="10" width="1" height="1"/><rect x="5" y="10" width="1" height="1"/><rect x="6" y="10" width="1" height="1"/><rect x="7" y="10" width="1" height="1"/><rect x="8" y="10" width="1" height="1"/><rect x="9" y="10" width="1" height="1"/><rect x="10" y="10" width="1" height="1"/><rect x="11" y="10" width="1" height="1"/><rect x="12" y="10" width="1" height="1"/><rect x="15" y="10" width="1" height="1"/><rect x="16" y="10" width="1" height="1"/><rect x="17" y="10" width="1" height="1"/><rect x="18" y="10" width="1" height="1"/><rect x="19" y="10" width="1" height="1"/><rect x="22" y="10" width="1" height="1"/><rect x="23" y="10" width="1" height="1"/><rect x="24" y="10" width="1" height="1"/><rect x="0" y="11" width="1" height="1"/><rect x="1" y="11" width="1" height="1"/><rect x="2" y="11" width="1" height="1"/><rect x="4" y="11" width="1" height="1"/><rect x="5" y="11" width="1" height="1"/><rect x="8" y="11" width="1" height="1"/><rect x="10" y="11" width="1" height="1"/><rect x="15" y="11" width="1" height="1"/><rect x="16" y="11" width="1" height="1"/><rect x="17" y="11" width="1" height="1"/><rect x="21" y="11" width="1" height="1"/><rect x="22" y="11" width="1" height="1"/><rect x="4" y="12" width="1" height="1"/><rect x="6" y="12" width="1" height="1"/><rect x="7" y="12" width="1" height="1"/><rect x="8" y="12" width="1" height="1"/><rect x="9" y="12" width="1" height="1"/><rect x="10" y="12" width="1" height="1"/><rect x="13" y="12" width="1" height="1"/><rect x="17" y="12" width="1" height="1"/><rect x="18" y="12" width="1" height="1"/><rect x="19" y="12" width="1" height="1"/><rect x="20" y="12" width="1" height="1"/><rect x="21" y="12" width="1" height="1"/><rect x="0" y="13" width="1" height="1"/><rect x="3" y="13" width="1" height="1"/><rect x="8" y="13" width="1" height="1"/><rect x="9" y="13" width="1" height="1"/><rect x="11" y="13" width="1" height="1"/><rect x="14" y="13" width="1" height="1"/><rect x="15" y="13" width="1" height="1"/><rect x="18" y="13" width="1" height="1"/><rect x="19" y="13" width="1" height="1"/><rect x="20" y="13" width="1" height="1"/><rect x="23" y="13" width="1" height="1"/><rect x="2" y="14" width="1" height="1"/><rect x="4" y="14" width="1" height="1"/><rect x="5" y="14" width="1" height="1"/><rect x="10" y="14" width="1" height="1"/><rect x="13" y="14" width="1" height="1"/><rect x="14" y="14" width="1" height="1"/><rect x="15" y="14" width="1" height="1"/><rect x="16" y="14" width="1" height="1"/><rect x="18" y="14" width="1" height="1"/><rect x="19" y="14" width="1" height="1"/><rect x="20" y="14" width="1" height="1"/><rect x="22" y="14" width="1" height="1"/><rect x="23" y="14" width="1" height="1"/><rect x="1" y="15" width="1" height="1"/><rect x="6" y="15" width="1" height="1"/><rect x="7" y="15" width="1" height="1"/><rect x="8" y="15" width="1" height="1"/><rect x="9" y="15" width="1" height="1"/><rect x="11" y="15" width="1" height="1"/><rect x="12" y="15" width="1" height="1"/><rect x="15" y="15" width="1" height="1"/><rect x="19" y="15" width="1" height="1"/><rect x="21" y="15" width="1" height="1"/><rect x="22" y="15" width="1" height="1"/><rect x="3" y="16" width="1" height="1"/><rect x="8" y="16" width="1" height="1"/><rect x="10" y="16" width="1" height="1"/><rect x="15" y="16" width="1" height="1"/><rect x="19" y="16" width="1" height="1"/><rect x="20" y="16" width="1" height="1"/><rect x="21" y="16" width="1" height="1"/><rect x="22" y="16" width="1" height="1"/><rect x="23" y="16" width="1" height="1"/><rect x="24" y="16" width="1" height="1"/><rect x="11" y="17" width="1" height="1"/><rect x="14" y="17" width="1" height="1"/><rect x="17" y="17" width="1" height="1"/><rect x="19" y="17" width="1" height="1"/><rect x="20" y="17" width="1" height="1"/><rect x="23" y="17" width="1" height="1"/><rect x="24" y="17" width="1" height="1"/><rect x="9" y="18" width="1" height="1"/><rect x="10" y="18" width="1" height="1"/><rect x="11" y="18" width="1" height="1"/><rect x="13" y="18" width="1" height="1"/><rect x="15" y="18" width="1" height="1"/><rect x="16" y="18" width="1" height="1"/><rect x="17" y="18" width="1" height="1"/><rect x="20" y="18" width="1" height="1"/><rect x="24" y="18" width="1" height="1"/><rect x="8" y="19" width="1" height="1"/><rect x="9" y="19" width="1" height="1"/><rect x="11" y="19" width="1" height="1"/><rect x="12" y="19" width="1" height="1"/><rect x="13" y="19" width="1" height="1"/><rect x="16" y="19" width="1" height="1"/><rect x="17" y="19" width="1" height="1"/><rect x="21" y="19" width="1" height="1"/><rect x="22" y="19" width="1" height="1"/><rect x="24" y="19" width="1" height="1"/><rect x="8" y="20" width="1" height="1"/><rect x="12" y="20" width="1" height="1"/><rect x="14" y="20" width="1" height="1"/><rect x="16" y="20" width="1" height="1"/><rect x="17" y="20" width="1" height="1"/><rect x="20" y="20" width="1" height="1"/><rect x="21" y="20" width="1" height="1"/><rect x="23" y="20" width="1" height="1"/><rect x="24" y="20" width="1" height="1"/><rect x="8" y="21" width="1" height="1"/><rect x="9" y="21" width="1" height="1"/><rect x="10" y="21" width="1" height="1"/><rect x="11" y="21" width="1" height="1"/><rect x="12" y="21" width="1" height="1"/><rect x="14" y="21" width="1" height="1"/><rect x="16" y="21" width="1" height="1"/><rect x="17" y="21" width="1" height="1"/><rect x="18" y="21" width="1" height="1"/><rect x="19" y="21" width="1" height="1"/><rect x="20" y="21" width="1" height="1"/><rect x="23" y="21" width="1" height="1"/><rect x="24" y="21" width="1" height="1"/><rect x="9" y="22" width="1" height="1"/><rect x="11" y="22" width="1" height="1"/><rect x="12" y="22" width="1" height="1"/><rect x="14" y="22" width="1" height="1"/><rect x="18" y="22" width="1" height="1"/><rect x="22" y="22" width="1" height="1"/><rect x="23" y="22" width="1" height="1"/><rect x="24" y="22" width="1" height="1"/><rect x="8" y="23" width="1" height="1"/><rect x="9" y="23" width="1" height="1"/><rect x="11" y="23" width="1" height="1"/><rect x="12" y="23" width="1" height="1"/><rect x="13" y="23" width="1" height="1"/><rect x="17" y="23" width="1" height="1"/><rect x="18" y="23" width="1" height="1"/><rect x="19" y="23" width="1" height="1"/><rect x="20" y="23" width="1" height="1"/><rect x="21" y="23" width="1" height="1"/><rect x="22" y="23" width="1" height="1"/><rect x="23" y="23" width="1" height="1"/><rect x="10" y="24" width="1" height="1"/><rect x="12" y="24" width="1" height="1"/><rect x="13" y="24" width="1" height="1"/><rect x="14" y="24" width="1" height="1"/><rect x="15" y="24" width="1" height="1"/><rect x="16" y="24" width="1" height="1"/><rect x="18" y="24" width="1" height="1"/><rect x="20" y="24" width="1" height="1"/><rect x="21" y="24" width="1" height="1"/><rect x="22" y="24" width="1" height="1"/><rect x="23" y="24" width="1" height="1"/><rect x="24" y="24" width="1" height="1"/></g></svg>